<?xml version="1.0" encoding="utf-8"?>
<!-- Generator: Adobe Illustrator 15.0.0, SVG Export Plug-In . SVG Version: 6.00 Build 0)  -->
<!DOCTYPE svg PUBLIC "-//W3C//DTD SVG 1.1//EN" "http://www.w3.org/Graphics/SVG/1.1/DTD/svg11.dtd">
<svg version="1.1" id="Ebene_1" xmlns="http://www.w3.org/2000/svg" xmlns:xlink="http://www.w3.org/1999/xlink" x="0px" y="0px"
	 width="841.89px" height="231.646px" viewBox="0 0 841.89 231.646" enable-background="new 0 0 841.89 231.646"
	 xml:space="preserve">
<g>
	<path fill="#053246" d="M418.875,207.271c10.358,0,19.167-1.557,26.427-4.667c7.252-3.105,12.702-7.301,16.351-12.582
		c3.656-5.277,5.473-11.176,5.473-17.693c0-7.493-1.99-13.415-5.985-17.761c-3.996-4.342-8.707-7.478-14.143-9.4
		c-5.427-1.926-12.091-3.63-19.988-5.107c-6.121-1.183-10.501-2.292-13.166-3.335c-2.672-1.037-4.003-2.586-4.003-4.659
		c0-4.342,4.489-6.513,13.472-6.513c9.079,0,18.71,2.567,28.865,7.697l10.517-25.314c-5.233-2.963-11.278-5.206-18.131-6.736
		c-6.868-1.531-13.853-2.292-20.958-2.292c-10.361,0-19.163,1.527-26.426,4.587c-7.252,3.057-12.699,7.256-16.351,12.586
		c-3.656,5.322-5.477,11.244-5.477,17.761c0,7.5,1.968,13.448,5.921,17.835c3.943,4.395,8.583,7.55,13.917,9.48
		c5.329,1.922,11.993,3.724,19.98,5.401c6.212,1.285,10.682,2.469,13.404,3.551c2.71,1.093,4.066,2.722,4.066,4.892
		c0,1.87-1.044,3.279-3.105,4.215c-2.077,0.938-5.533,1.406-10.365,1.406c-5.628,0-11.504-0.864-17.614-2.593
		c-6.125-1.719-11.647-4.018-16.582-6.879l-11.251,25.461c5.224,3.257,11.915,5.85,20.056,7.772
		C401.917,206.306,410.281,207.271,418.875,207.271z"/>
	<path fill="#053246" d="M535.228,178.994c-4.341,0-8.261-1.055-11.76-3.186c-3.513-2.118-6.286-5.126-8.367-9.027
		c-2.072-3.901-3.113-8.466-3.113-13.694c0-5.231,1.041-9.796,3.113-13.69c2.081-3.901,4.854-6.913,8.367-9.035
		c3.499-2.122,7.419-3.181,11.76-3.181c4.351,0,8.278,1.059,11.776,3.181s6.295,5.134,8.368,9.035
		c2.065,3.894,3.105,8.459,3.105,13.69c0,5.228-1.04,9.792-3.105,13.694c-2.073,3.901-4.87,6.909-8.368,9.027
		C543.506,177.938,539.578,178.994,535.228,178.994z M535.228,207.271c11.166,0,21.184-2.322,30.064-6.958
		c8.873-4.636,15.839-11.082,20.866-19.317c5.036-8.244,7.555-17.546,7.555-27.908s-2.519-19.664-7.555-27.904
		c-5.027-8.244-11.993-14.682-20.866-19.325c-8.881-4.636-18.898-6.951-30.064-6.951c-11.141,0-21.167,2.314-30.04,6.951
		c-8.888,4.644-15.838,11.082-20.882,19.325c-5.028,8.24-7.546,17.542-7.546,27.904s2.518,19.664,7.546,27.908
		c5.044,8.236,11.994,14.681,20.882,19.317C514.061,204.949,524.087,207.271,535.228,207.271z"/>
	<path fill="#053246" d="M662.992,178.994c-4.343,0-8.271-1.055-11.775-3.186c-3.498-2.118-6.287-5.126-8.361-9.027
		c-2.064-3.901-3.098-8.466-3.098-13.694c0-5.231,1.033-9.796,3.098-13.69c2.074-3.901,4.863-6.913,8.361-9.035
		c3.505-2.122,7.433-3.181,11.775-3.181c4.342,0,8.262,1.059,11.774,3.181c3.498,2.122,6.287,5.134,8.361,9.035
		c2.071,3.894,3.112,8.459,3.112,13.69c0,5.228-1.041,9.792-3.112,13.694c-2.074,3.901-4.863,6.909-8.361,9.027
		C671.254,177.938,667.334,178.994,662.992,178.994z M662.992,207.271c11.148,0,21.168-2.322,30.056-6.958
		c8.88-4.636,15.831-11.082,20.874-19.317c5.036-8.244,7.546-17.546,7.546-27.908s-2.51-19.664-7.546-27.904
		c-5.043-8.244-11.994-14.682-20.874-19.325c-8.888-4.636-18.907-6.951-30.056-6.951c-11.158,0-21.169,2.314-30.049,6.951
		c-8.881,4.644-15.847,11.082-20.867,19.325c-5.043,8.24-7.553,17.542-7.553,27.904s2.51,19.664,7.553,27.908
		c5.021,8.236,11.986,14.681,20.867,19.317C641.823,204.949,651.834,207.271,662.992,207.271z"/>
	<path fill="#053246" d="M783.344,152.492h-12.732v-24.274h12.732c4.743,0,8.301,1.059,10.667,3.181
		c2.368,2.122,3.552,5.107,3.552,8.956s-1.184,6.838-3.552,8.96C791.645,151.437,788.087,152.492,783.344,152.492z M785.568,101.271
		h-49.882v103.632h34.925v-25.465h14.957c9.574,0,17.92-1.579,25.013-4.738c7.117-3.159,12.59-7.697,16.449-13.622
		c3.845-5.922,5.76-12.827,5.76-20.724c0-7.893-1.915-14.802-5.76-20.727c-3.859-5.917-9.332-10.459-16.449-13.618
		C803.488,102.851,795.143,101.271,785.568,101.271z"/>
	<path fill="#053246" d="M331.978,128.621c0.166,0,0.328-0.022,0.486-0.022v-27.226c-0.158,0-0.32,0.02-0.486,0.02
		c-55.171,0-100.146-43.988-101.962-98.722h-0.083h-27.226c-0.399,23.282-4.877,45.588-12.749,66.232
		c-9.763-19.843-15.49-42.014-16.104-65.438c0.007-0.265,0.021-0.529,0.026-0.794h-0.053h-13.551h-0.06
		c0.006,0.303,0.021,0.603,0.029,0.905c-0.631,22.81-6.244,44.394-15.79,63.701c-7.353-20.225-11.538-41.96-11.92-64.606h-0.325
		h-5.718h-0.335C124.348,66.771,71.812,118.388,7.342,118.651v6.057c58.644-0.235,107.89-40.915,121.3-95.534
		c2.301,15.724,6.394,30.871,12.053,45.236c-26.236,46.722-76.137,78.438-133.354,78.779v13.619
		c58.75-0.327,110.407-31.042,140.064-77.19c4.666,9.5,10.046,18.587,16.065,27.196c-35.676,47.445-92.357,78.232-156.129,78.395
		v27.229c70.183-0.158,132.839-32.886,173.66-83.833c37.57,40.704,91.34,66.234,150.976,66.234c0.166,0,0.328-0.011,0.486-0.011
		v-6.046c-0.158,0-0.32,0.008-0.486,0.008c-58.24,0-110.709-25.092-147.205-65.024c5.761-7.607,11.037-15.6,15.802-23.921
		c31.535,37.438,78.734,61.263,131.414,61.263c0.154,0,0.316-0.007,0.475-0.007V157.49c-0.158,0-0.32,0.007-0.475,0.007
		c-50.49,0-95.511-23.776-124.493-60.713c5.066-10.389,9.347-21.226,12.77-32.436C242.713,102.756,284.372,128.621,331.978,128.621z
		 M167.233,111.635c-6.082-8.894-11.469-18.298-16.07-28.142c6.633-11.362,11.969-23.569,15.8-36.421
		c3.863,13.318,9.295,25.974,16.084,37.754C178.478,94.205,173.182,103.164,167.233,111.635z"/>
</g>
</svg>
